#!OML:ASF E:\Mandelcareful walks\Project 1\Capture day 1\Session 1\Subject1.ASF
:FULLY-SPECIFIED
:DEGREES
339
root 7.46993 15.7218 -3.99701 -86.8867 -78.563 94.3695
lowerback 31.4625 -1.08309 -1.57373
upperback 5.96567 -2.563 -0.774682
thorax -10.466 -1.37982 1.07329
lowerneck -24.8792 -0.203776 -5.23715
upperneck 13.7153 2.40874 -5.08616
head 8.34614 0.223374 -0.571181
rclavicle -7.95139e-015 2.54444e-014
rhumerus -23.133 7.25909 -86.945
rradius 86.4116
rwrist -13.9349
rhand -13.5848 -29.0192
rfingers 7.12502
rthumb 12.5294 -58.6235
lclavicle -7.95139e-015 2.54444e-014
lhumerus -17.7364 -20.6496 90.5099
lradius 78.189
lwrist 11.6398
lhand -23.0016 -15.5369
lfingers 7.12502
lthumb 3.44157 14.4151
rfemur -36.0994 -9.50873 7.59297
rtibia 57.2807
rfoot -25.511 -8.09871
rtoes 11.0645
lfemur -28.0629 10.0136 -12.0565
ltibia 43.1371
lfoot -9.44449 6.51984
ltoes -21.2591
340
root 7.47483 15.7261 -4.0455 -87.1252 -78.4399 94.6036
lowerback 31.7041 -1.12575 -1.61253
upperback 5.47253 -2.63057 -0.713603
thorax -10.3274 -1.40885 1.12442
lowerneck -25.1183 -0.131265 -5.25344
upperneck 13.7868 2.54649 -5.14498
head 8.41153 0.27275 -0.57063
rclavicle -9.54166e-015 -2.22639e-014
rhumerus -23.1159 7.64807 -86.8123
rradius 86.2301
rwrist -14.0191
rhand -13.8248 -28.2613
rfingers 7.12502
rthumb 12.298 -57.8796
lclavicle -9.54166e-015 -2.22639e-014
lhumerus -17.8362 -20.6087 90.6738
lradius 78.1897
lwrist 11.5786
lhand -22.8076 -15.2794
lfingers 7.12502
lthumb 3.62887 14.6695
rfemur -36.1121 -9.21757 7.64898
rtibia 57.2428
rfoot -25.5457 -8.3489
rtoes 11.1626
lfemur -28.7179 10.3552 -12.0677
ltibia 44.0285
lfoot -8.06177 6.81984
ltoes -19.8859
341
root 7.47057 15.7334 -4.08969 -88.5156 -78.4578 95.8814
lowerback 31.8149 -1.02348 -1.40898
upperback 5.45796 -2.4404 -0.73422
thorax -10.4017 -1.32649 0.926773
lowerneck -25.2881 -0.198152 -5.212
upperneck 13.8298 2.45998 -5.15682
head 8.45445 0.228428 -0.594406
rclavicle 3.4191e-014 8.74653e-015
rhumerus -23.1069 7.58592 -86.6129
rradius 86.0819
rwrist -14.0212
rhand -13.9047 -27.6768
rfingers 7.12502
rthumb 12.221 -57.2998
lclavicle 3.4191e-014 8.74653e-015
lhumerus -17.9938 -21.0033 90.9533
lradius 78.2272
lwrist 11.4062
lhand -22.6898 -15.4778
lfingers 7.12502
lthumb 3.7427 14.4691
rfemur -36.0018 -8.67388 7.81913
rtibia 57.1546
rfoot -25.5583 -8.58849
rtoes 11.442
lfemur -29.1492 10.8278 -11.9042
ltibia 44.884
lfoot -7.08498 6.82469
ltoes -18.6938
342
root 7.46264 15.7477 -4.13808 -86.2043 -78.1508 93.6104
lowerback 31.2826 -1.1439 -1.25935
upperback 5.91728 -2.53393 -0.82625
thorax -10.4507 -1.37337 0.816296
lowerneck -25.5859 -0.318847 -5.25557
upperneck 13.9888 2.32848 -5.06327
head 8.55528 0.164146 -0.576255
rclavicle 1.27222e-014 -5.56597e-015
rhumerus -23.0812 7.36332 -86.3621
rradius 86.0315
rwrist -14.1348
rhand -13.8219 -27.8632
rfingers 7.12502
rthumb 12.3009 -57.4814
lclavicle 1.27222e-014 -5.56597e-015
lhumerus -18.0968 -21.5544 91.3037
lradius 78.1265
lwrist 10.9146
lhand -22.9587 -15.734
lfingers 7.12502
lthumb 3.48299 14.2173
rfemur -35.8395 -8.98534 7.63005
rtibia 57.1145
rfoot -25.6776 -8.74171
rtoes 11.6436
lfemur -29.8947 10.945 -12.237
ltibia 45.6178
lfoot -6.17562 6.47739
ltoes -19.3651
343
root 7.42732 15.7714 -4.16341 -87.3144 -78.1413 94.2309
lowerback 31.3269 -1.15083 -0.89389
upperback 6.15635 -2.45298 -0.883889
thorax -10.2139 -1.36102 0.505294
lowerneck -25.9806 -0.359211 -5.30409
upperneck 14.2358 2.33015 -5.01491
head 8.70421 0.151576 -0.554686
rclavicle 4.77083e-015 -1.11319e-014
rhumerus -22.958 7.3396 -86.1585
rradius 85.8955
rwrist -14.0735
rhand -13.7716 -28.2233
rfingers 7.12502
rthumb 12.3493 -57.8386
lclavicle 4.77083e-015 -1.11319e-014
lhumerus -18.023 -21.8865 91.5933
lradius 77.8863
lwrist 10.0786
lhand -23.4118 -15.9411
lfingers 7.12502
lthumb 3.04541 14.0169
rfemur -34.9725 -8.75313 7.60686
rtibia 56.7346
rfoot -25.6714 -8.85384
rtoes 11.354
lfemur -29.6019 11.2044 -12.1845
ltibia 46.0722
lfoot -5.84072 6.64243
ltoes -17.5532
